<?xml version="1.0" encoding="UTF-8" standalone="no"?>
<!DOCTYPE svg PUBLIC "-//W3C//DTD SVG 1.1//EN" "http://www.w3.org/Graphics/SVG/1.1/DTD/svg11.dtd">
<svg width="100%" height="100%" viewBox="0 0 56 49" version="1.1" xmlns="http://www.w3.org/2000/svg" xmlns:xlink="http://www.w3.org/1999/xlink" xml:space="preserve" xmlns:serif="http://www.serif.com/" style="fill-rule:evenodd;clip-rule:evenodd;stroke-linecap:round;stroke-linejoin:round;stroke-miterlimit:1.5;">
    <g transform="matrix(1,0,0,1,-399.248,-205.477)">
        <g id="bw_midi" transform="matrix(1,0,0,1,-47.2104,12.8836)">
            <g transform="matrix(0.441458,0,0,1.01373,382.852,99.7468)">
                <path d="M268.995,106.707C268.995,98.772 254.201,92.33 235.979,92.33L178.801,92.33C160.58,92.33 145.786,98.772 145.786,106.707L145.786,124.331C145.786,132.267 160.58,138.709 178.801,138.709L235.979,138.709C254.201,138.709 268.995,132.267 268.995,124.331L268.995,106.707Z" style="fill:rgb(3,0,0);stroke:black;stroke-width:1.92px;"/>
            </g>
            <g transform="matrix(0.00311036,3.26594e-20,-3.26594e-20,-0.00284367,454.374,250.088)">
                <path d="M10215,15933C10028,15927 9702,15869 9545,15815C9394,15762 9191,15675 9075,15612C9042,15595 8999,15572 8980,15562C8938,15541 8887,15510 8732,15408C8526,15272 8433,15203 8240,15041C7981,14825 7536,14372 7312,14098C7270,14046 7214,13979 7189,13949C7131,13880 7038,13759 6883,13550C6816,13459 6753,13374 6742,13360C6689,13289 6535,13059 6485,12975C6477,12962 6468,12959 6452,12964C6440,12968 6430,12976 6430,12982C6430,12987 6421,13004 6409,13018C6398,13033 6348,13106 6299,13180C6249,13254 6181,13354 6147,13402C5986,13627 5976,13640 5764,13903C5699,13984 5625,14077 5600,14109C5377,14394 4840,14930 4556,15150C4524,15175 4475,15213 4446,15236C4382,15288 4108,15472 4015,15527C3821,15641 3617,15734 3419,15799C3209,15868 3128,15889 3035,15900C2991,15905 2924,15914 2885,15919C2704,15946 2401,15922 2180,15864C2084,15838 1912,15771 1850,15734C1836,15726 1809,15712 1790,15703C1751,15686 1589,15578 1520,15524C1175,15252 863,14797 676,14294C668,14272 648,14217 630,14170C613,14123 594,14069 589,14050C584,14031 568,13977 554,13930C512,13791 503,13758 490,13700C483,13670 467,13607 454,13560C441,13513 430,13461 430,13445C430,13428 421,13385 411,13348C400,13311 389,13250 385,13213C381,13176 372,13117 364,13083C357,13048 343,12952 334,12868C326,12784 312,12672 304,12620C255,12301 253,10832 300,10410C305,10363 316,10244 325,10145C333,10046 349,9898 359,9815C370,9733 386,9607 395,9535C414,9382 424,9309 451,9140C462,9071 478,8968 485,8910C493,8852 506,8774 514,8735C522,8697 534,8634 540,8595C546,8557 557,8496 565,8460C582,8381 616,8206 636,8090C644,8043 655,7992 660,7975C665,7959 679,7898 690,7840C710,7732 726,7661 760,7530C771,7489 784,7428 790,7395C797,7362 808,7313 816,7285C830,7235 855,7137 891,6985C901,6941 921,6865 935,6815C949,6766 967,6698 976,6665C985,6632 994,6603 995,6601C1002,6594 2075,6601 2081,6608C2085,6612 2075,6656 2058,6705C2041,6755 2020,6829 2010,6870C1977,7001 1951,7103 1935,7155C1916,7221 1882,7355 1859,7460C1849,7507 1836,7556 1831,7570C1825,7584 1819,7611 1815,7630C1812,7649 1796,7721 1780,7790C1733,7995 1729,8011 1710,8110C1699,8162 1686,8221 1680,8240C1663,8303 1596,8657 1555,8903C1542,8984 1529,9054 1526,9058C1524,9062 1514,9119 1505,9185C1496,9251 1482,9341 1474,9385C1466,9429 1453,9524 1446,9595C1438,9667 1427,9748 1421,9775C1415,9803 1404,9902 1395,9996C1387,10090 1376,10192 1370,10221C1365,10251 1356,10356 1350,10455C1344,10554 1332,10714 1323,10810C1303,11023 1299,12129 1318,12240C1324,12276 1336,12400 1345,12515C1354,12631 1368,12754 1375,12790C1383,12826 1394,12899 1400,12952C1406,13006 1416,13064 1421,13082C1427,13100 1437,13153 1444,13200C1469,13364 1562,13704 1637,13900C1718,14114 1814,14302 1925,14461C2089,14699 2323,14854 2554,14880C2658,14892 2867,14877 2912,14854C2927,14846 2949,14840 2960,14840C2986,14840 3150,14785 3200,14760C3219,14750 3264,14728 3300,14711C3675,14534 4104,14188 4548,13705C4692,13549 4909,13292 4995,13176C5023,13139 5070,13079 5100,13042C5131,13005 5166,12956 5179,12935C5193,12913 5213,12884 5225,12870C5238,12856 5274,12807 5306,12760C5338,12713 5386,12644 5413,12605C5458,12540 5589,12343 5665,12225C5683,12198 5719,12139 5745,12095C5771,12051 5804,11999 5817,11979C5845,11936 5846,11910 5820,11877C5798,11849 5796,11846 5621,11515C5442,11177 5279,10845 5108,10470C5092,10434 5070,10387 5060,10365C5027,10294 4855,9899 4804,9775C4790,9742 4770,9695 4760,9670C4730,9599 4660,9421 4634,9350C4621,9314 4606,9276 4601,9265C4581,9226 4520,9060 4520,9047C4520,9040 4514,9026 4507,9015C4499,9004 4476,8946 4455,8885C4434,8825 4411,8762 4404,8745C4398,8729 4385,8695 4377,8670C4368,8645 4345,8580 4325,8525C4305,8470 4283,8405 4275,8380C4239,8267 4217,8200 4194,8142C4181,8108 4170,8074 4170,8066C4170,8059 4162,8031 4151,8004C4141,7977 4118,7908 4100,7850C4082,7792 4060,7720 4050,7690C4040,7660 4017,7586 4000,7525C3982,7465 3960,7390 3950,7360C3939,7330 3924,7278 3916,7245C3886,7127 3851,7004 3836,6961C3827,6937 3820,6909 3820,6899C3820,6883 3794,6790 3754,6666C3744,6634 3742,6614 3748,6608C3758,6598 4775,6596 4792,6606C4796,6609 4800,6622 4800,6635C4800,6649 4809,6690 4820,6727C4873,6902 4880,6927 4886,6955C4889,6972 4902,7017 4915,7055C4927,7094 4950,7166 4964,7215C5010,7368 5042,7473 5061,7525C5071,7553 5082,7591 5085,7610C5089,7629 5100,7665 5110,7690C5130,7741 5153,7807 5180,7895C5190,7928 5215,8000 5235,8055C5256,8110 5278,8175 5286,8200C5293,8225 5314,8283 5331,8330C5348,8377 5373,8444 5385,8480C5398,8516 5423,8581 5440,8625C5457,8669 5478,8724 5485,8747C5493,8771 5506,8805 5514,8822C5522,8840 5549,8907 5573,8970C5651,9171 5717,9333 5745,9395C5760,9428 5783,9482 5795,9515C5808,9548 5834,9609 5854,9651C5874,9693 5890,9731 5890,9734C5890,9738 5908,9780 5931,9828C5954,9876 5978,9931 5985,9950C5992,9969 6024,10039 6055,10105C6087,10171 6135,10272 6162,10330C6190,10388 6252,10516 6300,10615C6349,10714 6391,10805 6395,10818C6404,10851 6437,10865 6450,10843C6493,10767 6749,10232 6856,9991C6949,9783 6954,9771 6978,9715C7040,9568 7072,9492 7085,9465C7093,9449 7106,9417 7114,9395C7122,9373 7154,9294 7185,9220C7216,9146 7248,9066 7255,9043C7263,9019 7276,8985 7284,8968C7299,8936 7309,8909 7355,8780C7368,8744 7393,8679 7410,8635C7492,8425 7675,7892 7784,7545C7805,7479 7830,7400 7840,7370C7850,7340 7873,7266 7890,7205C7908,7145 7930,7070 7940,7040C7950,7010 7962,6967 7966,6945C7970,6923 7984,6875 7997,6838C8009,6801 8020,6764 8020,6757C8020,6744 8060,6608 8066,6601C8070,6596 9144,6600 9149,6605C9151,6608 9143,6642 9131,6682C9118,6722 9101,6782 9094,6815C9086,6848 9072,6900 9063,6930C9054,6960 9039,7017 9030,7055C9020,7094 9000,7166 8985,7215C8970,7265 8952,7330 8944,7360C8936,7390 8918,7449 8905,7490C8892,7531 8870,7606 8855,7655C8810,7804 8769,7933 8754,7970C8747,7989 8734,8030 8726,8060C8709,8123 8586,8487 8509,8700C8481,8780 8447,8874 8434,8910C8422,8946 8399,9007 8385,9045C8370,9084 8345,9149 8330,9190C8315,9232 8289,9299 8272,9340C8255,9381 8212,9492 8175,9585C8089,9802 7878,10296 7795,10475C7782,10503 7761,10550 7747,10580C7556,11002 7258,11594 7076,11910C7062,11935 7050,11960 7050,11967C7050,11981 7143,12134 7176,12173C7189,12189 7200,12206 7200,12211C7200,12217 7220,12250 7245,12284C7270,12319 7290,12351 7290,12355C7290,12358 7310,12387 7334,12419C7359,12451 7393,12501 7410,12531C7428,12561 7452,12596 7465,12610C7478,12624 7501,12656 7517,12682C7532,12707 7565,12755 7590,12787C7616,12819 7639,12852 7642,12861C7645,12869 7680,12915 7719,12963C7758,13011 7790,13053 7790,13056C7790,13059 7812,13089 7840,13123C7867,13157 7920,13223 7957,13270C8021,13351 8138,13488 8170,13520C8179,13528 8220,13576 8261,13625C8364,13747 8634,14018 8750,14115C8802,14159 8850,14199 8855,14205C8878,14231 8993,14322 9100,14401C9261,14519 9404,14607 9555,14680C9627,14715 9696,14749 9710,14755C9758,14779 9896,14819 9980,14835C10027,14844 10090,14855 10120,14861C10187,14874 10333,14868 10420,14848C10509,14828 10618,14780 10703,14723C10773,14676 10917,14540 10948,14490C10957,14476 10981,14445 11001,14420C11082,14318 11208,14074 11275,13890C11290,13849 11310,13793 11320,13765C11357,13664 11438,13352 11455,13250C11458,13231 11469,13175 11480,13125C11497,13045 11509,12973 11541,12740C11554,12642 11580,12364 11591,12190C11607,11956 11596,10994 11576,10805C11567,10723 11556,10583 11550,10495C11544,10407 11533,10292 11524,10240C11516,10188 11505,10092 11500,10027C11495,9962 11482,9847 11470,9772C11418,9431 11400,9312 11395,9265C11391,9238 11380,9177 11370,9130C11360,9083 11349,9018 11345,8985C11342,8952 11332,8900 11325,8870C11317,8840 11306,8781 11300,8740C11293,8699 11282,8638 11273,8605C11265,8572 11252,8511 11245,8470C11227,8364 11192,8198 11170,8110C11130,7951 11107,7852 11095,7785C11087,7747 11077,7702 11071,7687C11065,7671 11053,7629 11045,7592C11028,7512 10997,7391 10970,7295C10959,7257 10943,7198 10935,7165C10926,7132 10908,7067 10895,7020C10882,6973 10864,6908 10855,6875C10846,6842 10826,6774 10810,6723C10777,6622 10774,6600 10793,6600C10918,6596 11827,6603 11831,6608C11835,6612 11845,6649 11854,6690C11863,6731 11879,6792 11890,6825C11900,6858 11921,6932 11935,6990C11950,7048 11972,7133 11986,7180C11999,7227 12024,7324 12040,7395C12057,7467 12078,7552 12087,7585C12103,7644 12122,7728 12155,7885C12164,7929 12182,8015 12196,8075C12257,8345 12293,8525 12316,8670C12324,8722 12335,8779 12341,8795C12346,8812 12358,8877 12366,8940C12374,9003 12387,9080 12395,9110C12403,9140 12414,9212 12420,9270C12426,9328 12435,9389 12440,9405C12445,9422 12459,9517 12470,9618C12481,9719 12492,9805 12495,9810C12498,9814 12509,9909 12520,10021C12532,10133 12545,10252 12550,10285C12555,10318 12564,10433 12570,10540C12576,10647 12588,10821 12597,10925C12620,11199 12621,12173 12597,12375C12588,12452 12576,12585 12570,12670C12564,12755 12553,12868 12545,12920C12537,12972 12524,13062 12516,13120C12492,13297 12459,13483 12445,13530C12437,13555 12426,13604 12420,13638C12414,13673 12404,13714 12399,13728C12393,13743 12380,13791 12370,13835C12360,13879 12347,13929 12341,13945C12335,13962 12316,14022 12299,14080C12210,14374 12062,14698 11897,14960C11736,15215 11457,15503 11231,15647C11157,15694 10953,15800 10936,15800C10930,15800 10912,15807 10895,15816C10868,15830 10821,15845 10678,15885C10652,15892 10598,15901 10558,15905C10518,15908 10472,15915 10455,15920C10415,15931 10314,15937 10215,15933Z" style="fill:white;fill-rule:nonzero;"/>
            </g>
        </g>
    </g>
</svg>
