<?xml version="1.0" encoding="UTF-8" standalone="no"?>
<!DOCTYPE svg PUBLIC "-//W3C//DTD SVG 1.1//EN" "http://www.w3.org/Graphics/SVG/1.1/DTD/svg11.dtd">
<svg width="100%" height="100%" viewBox="0 0 56 49" version="1.1" xmlns="http://www.w3.org/2000/svg" xmlns:xlink="http://www.w3.org/1999/xlink" xml:space="preserve" xmlns:serif="http://www.serif.com/" style="fill-rule:evenodd;clip-rule:evenodd;stroke-linecap:round;stroke-linejoin:round;stroke-miterlimit:1.5;">
    <g transform="matrix(1,0,0,1,-399.248,-256.593)">
        <g id="bw_audio" transform="matrix(1,0,0,1,-47.2104,64.0001)">
            <g transform="matrix(0.441458,0,0,1.01373,382.852,99.7468)">
                <path d="M268.995,106.707C268.995,98.772 254.201,92.33 235.979,92.33L178.801,92.33C160.58,92.33 145.786,98.772 145.786,106.707L145.786,124.331C145.786,132.267 160.58,138.709 178.801,138.709L235.979,138.709C254.201,138.709 268.995,132.267 268.995,124.331L268.995,106.707Z" style="fill:rgb(3,0,0);stroke:black;stroke-width:1.92px;"/>
            </g>
            <g transform="matrix(0.0721239,0,0,0.0686772,461.258,204.333)">
                <path d="M360.655,258.05L360.655,25C360.655,11.193 349.464,0 335.655,0L130.09,0C116.283,0 105.09,11.193 105.09,25L105.09,231.27C94.521,228.086 82.945,226.999 71.032,228.502C29.527,233.738 -0.293,268.3 4.427,305.695C9.146,343.091 46.616,369.159 88.121,363.921C128.136,358.872 155.09,326.775 155.09,290.74L155.09,50L310.654,50L310.654,196.794C300.063,193.594 288.464,192.497 276.52,194.004C235.016,199.241 205.197,233.802 209.916,271.197C214.635,308.592 252.104,334.661 293.61,329.424C332.951,324.458 360.655,293.275 360.655,258.05Z" style="fill:white;fill-rule:nonzero;"/>
            </g>
        </g>
    </g>
</svg>
