<?xml version="1.0" encoding="UTF-8" standalone="no"?>
<!DOCTYPE svg PUBLIC "-//W3C//DTD SVG 1.1//EN" "http://www.w3.org/Graphics/SVG/1.1/DTD/svg11.dtd">
<svg width="100%" height="100%" viewBox="0 0 56 49" version="1.1" xmlns="http://www.w3.org/2000/svg" xmlns:xlink="http://www.w3.org/1999/xlink" xml:space="preserve" xmlns:serif="http://www.serif.com/" style="fill-rule:evenodd;clip-rule:evenodd;stroke-linecap:round;stroke-linejoin:round;stroke-miterlimit:1.5;">
    <g transform="matrix(1,0,0,1,-337.965,-205.477)">
        <g id="bw_g" transform="matrix(1,0,0,1,-108.494,12.8836)">
            <g transform="matrix(0.441458,0,0,1.01373,382.852,99.7468)">
                <path d="M268.995,106.707C268.995,98.772 254.201,92.33 235.979,92.33L178.801,92.33C160.58,92.33 145.786,98.772 145.786,106.707L145.786,124.331C145.786,132.267 160.58,138.709 178.801,138.709L235.979,138.709C254.201,138.709 268.995,132.267 268.995,124.331L268.995,106.707Z" style="fill:rgb(3,0,0);stroke:black;stroke-width:1.92px;"/>
            </g>
            <g transform="matrix(0.888421,0,0,0.888421,319.122,113.556)">
                <g transform="matrix(0.464009,0,0,0.464009,83.6531,52.2886)">
                    <path d="M172.084,101.558C172.084,99.349 170.291,97.555 168.081,97.555L160.075,97.555C157.866,97.555 156.072,99.349 156.072,101.558L156.072,109.564C156.072,111.774 157.866,113.567 160.075,113.567L168.081,113.567C170.291,113.567 172.084,111.774 172.084,109.564L172.084,101.558Z" style="fill:rgb(233,178,76);"/>
                </g>
                <g transform="matrix(0.464009,0,0,0.464009,93.6531,52.2886)">
                    <path d="M172.084,101.558C172.084,99.349 170.291,97.555 168.081,97.555L160.075,97.555C157.866,97.555 156.072,99.349 156.072,101.558L156.072,109.564C156.072,111.774 157.866,113.567 160.075,113.567L168.081,113.567C170.291,113.567 172.084,111.774 172.084,109.564L172.084,101.558Z" style="fill:rgb(233,178,76);"/>
                </g>
                <g transform="matrix(0.464009,0,0,0.464009,103.653,52.2886)">
                    <path d="M172.084,101.558C172.084,99.349 170.291,97.555 168.081,97.555L160.075,97.555C157.866,97.555 156.072,99.349 156.072,101.558L156.072,109.564C156.072,111.774 157.866,113.567 160.075,113.567L168.081,113.567C170.291,113.567 172.084,111.774 172.084,109.564L172.084,101.558Z" style="fill:rgb(233,178,76);"/>
                </g>
                <g transform="matrix(0.464009,0,0,0.464009,113.653,52.2886)">
                    <path d="M172.084,101.558C172.084,99.349 170.291,97.555 168.081,97.555L160.075,97.555C157.866,97.555 156.072,99.349 156.072,101.558L156.072,109.564C156.072,111.774 157.866,113.567 160.075,113.567L168.081,113.567C170.291,113.567 172.084,111.774 172.084,109.564L172.084,101.558Z" style="fill:rgb(233,178,76);"/>
                </g>
                <g transform="matrix(0.464009,0,0,0.464009,83.6531,62.2886)">
                    <path d="M172.084,101.558C172.084,99.349 170.291,97.555 168.081,97.555L160.075,97.555C157.866,97.555 156.072,99.349 156.072,101.558L156.072,109.564C156.072,111.774 157.866,113.567 160.075,113.567L168.081,113.567C170.291,113.567 172.084,111.774 172.084,109.564L172.084,101.558Z" style="fill:rgb(233,178,76);"/>
                </g>
                <g transform="matrix(0.464009,0,0,0.464009,93.6531,62.2886)">
                    <path d="M172.084,101.558C172.084,99.349 170.291,97.555 168.081,97.555L160.075,97.555C157.866,97.555 156.072,99.349 156.072,101.558L156.072,109.564C156.072,111.774 157.866,113.567 160.075,113.567L168.081,113.567C170.291,113.567 172.084,111.774 172.084,109.564L172.084,101.558Z" style="fill:rgb(233,178,76);"/>
                </g>
                <g transform="matrix(0.464009,0,0,0.464009,103.653,62.2886)">
                    <path d="M172.084,101.558C172.084,99.349 170.291,97.555 168.081,97.555L160.075,97.555C157.866,97.555 156.072,99.349 156.072,101.558L156.072,109.564C156.072,111.774 157.866,113.567 160.075,113.567L168.081,113.567C170.291,113.567 172.084,111.774 172.084,109.564L172.084,101.558Z" style="fill:rgb(233,178,76);"/>
                </g>
                <g transform="matrix(0.464009,0,0,0.464009,113.653,62.2886)">
                    <path d="M172.084,101.558C172.084,99.349 170.291,97.555 168.081,97.555L160.075,97.555C157.866,97.555 156.072,99.349 156.072,101.558L156.072,109.564C156.072,111.774 157.866,113.567 160.075,113.567L168.081,113.567C170.291,113.567 172.084,111.774 172.084,109.564L172.084,101.558Z" style="fill:rgb(233,178,76);"/>
                </g>
                <g transform="matrix(0.464009,0,0,0.464009,83.6531,72.2886)">
                    <path d="M172.084,101.558C172.084,99.349 170.291,97.555 168.081,97.555L160.075,97.555C157.866,97.555 156.072,99.349 156.072,101.558L156.072,109.564C156.072,111.774 157.866,113.567 160.075,113.567L168.081,113.567C170.291,113.567 172.084,111.774 172.084,109.564L172.084,101.558Z" style="fill:rgb(233,178,76);"/>
                </g>
                <g transform="matrix(0.464009,0,0,0.464009,93.6531,72.2886)">
                    <path d="M172.084,101.558C172.084,99.349 170.291,97.555 168.081,97.555L160.075,97.555C157.866,97.555 156.072,99.349 156.072,101.558L156.072,109.564C156.072,111.774 157.866,113.567 160.075,113.567L168.081,113.567C170.291,113.567 172.084,111.774 172.084,109.564L172.084,101.558Z" style="fill:rgb(233,178,76);"/>
                </g>
                <g transform="matrix(0.464009,0,0,0.464009,103.653,72.2886)">
                    <path d="M172.084,101.558C172.084,99.349 170.291,97.555 168.081,97.555L160.075,97.555C157.866,97.555 156.072,99.349 156.072,101.558L156.072,109.564C156.072,111.774 157.866,113.567 160.075,113.567L168.081,113.567C170.291,113.567 172.084,111.774 172.084,109.564L172.084,101.558Z" style="fill:rgb(233,178,76);"/>
                </g>
                <g transform="matrix(0.464009,0,0,0.464009,113.653,72.2886)">
                    <path d="M172.084,101.558C172.084,99.349 170.291,97.555 168.081,97.555L160.075,97.555C157.866,97.555 156.072,99.349 156.072,101.558L156.072,109.564C156.072,111.774 157.866,113.567 160.075,113.567L168.081,113.567C170.291,113.567 172.084,111.774 172.084,109.564L172.084,101.558Z" style="fill:rgb(233,178,76);"/>
                </g>
                <g transform="matrix(0.464009,0,0,0.464009,83.6531,82.2886)">
                    <path d="M172.084,101.558C172.084,99.349 170.291,97.555 168.081,97.555L160.075,97.555C157.866,97.555 156.072,99.349 156.072,101.558L156.072,109.564C156.072,111.774 157.866,113.567 160.075,113.567L168.081,113.567C170.291,113.567 172.084,111.774 172.084,109.564L172.084,101.558Z" style="fill:rgb(233,178,76);"/>
                </g>
                <g transform="matrix(0.464009,0,0,0.464009,93.6531,82.2886)">
                    <path d="M172.084,101.558C172.084,99.349 170.291,97.555 168.081,97.555L160.075,97.555C157.866,97.555 156.072,99.349 156.072,101.558L156.072,109.564C156.072,111.774 157.866,113.567 160.075,113.567L168.081,113.567C170.291,113.567 172.084,111.774 172.084,109.564L172.084,101.558Z" style="fill:rgb(233,178,76);"/>
                </g>
                <g transform="matrix(0.464009,0,0,0.464009,103.653,82.2886)">
                    <path d="M172.084,101.558C172.084,99.349 170.291,97.555 168.081,97.555L160.075,97.555C157.866,97.555 156.072,99.349 156.072,101.558L156.072,109.564C156.072,111.774 157.866,113.567 160.075,113.567L168.081,113.567C170.291,113.567 172.084,111.774 172.084,109.564L172.084,101.558Z" style="fill:rgb(233,178,76);"/>
                </g>
                <g transform="matrix(0.464009,0,0,0.464009,113.653,82.2886)">
                    <path d="M172.084,101.558C172.084,99.349 170.291,97.555 168.081,97.555L160.075,97.555C157.866,97.555 156.072,99.349 156.072,101.558L156.072,109.564C156.072,111.774 157.866,113.567 160.075,113.567L168.081,113.567C170.291,113.567 172.084,111.774 172.084,109.564L172.084,101.558Z" style="fill:rgb(233,178,76);"/>
                </g>
            </g>
        </g>
    </g>
</svg>
