<?xml version="1.0" encoding="UTF-8" standalone="no"?>
<!DOCTYPE svg PUBLIC "-//W3C//DTD SVG 1.1//EN" "http://www.w3.org/Graphics/SVG/1.1/DTD/svg11.dtd">
<svg width="100%" height="100%" viewBox="0 0 114 50" version="1.1" xmlns="http://www.w3.org/2000/svg" xmlns:xlink="http://www.w3.org/1999/xlink" xml:space="preserve" xmlns:serif="http://www.serif.com/" style="fill-rule:evenodd;clip-rule:evenodd;stroke-linecap:round;stroke-linejoin:round;stroke-miterlimit:1.5;">
    <g transform="matrix(1,0,0,1,-467.949,-521.026)">
        <g id="bw_audio_o" transform="matrix(1,0,0,1,21.4905,279.154)">
            <g transform="matrix(0.909922,0,0,1.03956,314.556,146.641)">
                <path d="M268.995,106.707C268.995,98.772 261.634,92.33 252.569,92.33L162.212,92.33C153.146,92.33 145.786,98.772 145.786,106.707L145.786,124.331C145.786,132.267 153.146,138.709 162.212,138.709L252.569,138.709C261.634,138.709 268.995,132.267 268.995,124.331L268.995,106.707Z" style="fill:white;stroke:black;stroke-width:1.54px;"/>
            </g>
            <g transform="matrix(1,0,0,1,314.839,170.418)">
                <g transform="matrix(16,0,0,16,205.917,101.941)">
                    <path d="M0.331,-0.716L0.475,-0.716L0.475,-0.263C0.475,-0.203 0.47,-0.158 0.459,-0.126C0.445,-0.084 0.42,-0.051 0.383,-0.026C0.347,-0 0.298,0.012 0.238,0.012C0.167,0.012 0.113,-0.008 0.075,-0.047C0.037,-0.087 0.017,-0.145 0.017,-0.221L0.153,-0.237C0.155,-0.196 0.161,-0.167 0.171,-0.15C0.187,-0.124 0.211,-0.111 0.243,-0.111C0.275,-0.111 0.298,-0.121 0.311,-0.139C0.324,-0.157 0.331,-0.195 0.331,-0.253L0.331,-0.716Z" style="fill-rule:nonzero;"/>
                </g>
                <g transform="matrix(16,0,0,16,214.816,101.941)">
                    <path d="M0.074,-0L0.074,-0.716L0.564,-0.716L0.564,-0.595L0.218,-0.595L0.218,-0.425L0.517,-0.425L0.517,-0.304L0.218,-0.304L0.218,-0L0.074,-0Z" style="fill-rule:nonzero;"/>
                </g>
            </g>
            <g transform="matrix(0.454961,0,0,1.01373,380.883,149.026)">
                <path d="M268.995,92.33L177.822,92.33C160.141,92.33 145.786,98.772 145.786,106.707L145.786,124.331C145.786,132.267 160.141,138.709 177.822,138.709L268.995,138.709L268.995,92.33Z" style="stroke:black;stroke-width:1.91px;"/>
            </g>
            <g transform="matrix(1,0,0,1,259.992,180.179)">
                <path d="M199.418,91.805L204.926,80.101L208.193,80.101L213.554,91.805L209.394,91.805L206.494,84.642L203.608,91.805L199.418,91.805Z" style="fill:white;fill-rule:nonzero;stroke:white;stroke-width:1px;stroke-linecap:butt;stroke-miterlimit:2;"/>
                <path d="M216.938,91.805L222.446,80.101L225.712,80.101L231.074,91.805L226.913,91.805L224.013,84.642L221.127,91.805L216.938,91.805Z" style="fill:white;fill-rule:nonzero;stroke:white;stroke-width:1px;stroke-linecap:butt;stroke-miterlimit:2;"/>
            </g>
        </g>
    </g>
</svg>
