<?xml version="1.0" encoding="UTF-8" standalone="no"?>
<!DOCTYPE svg PUBLIC "-//W3C//DTD SVG 1.1//EN" "http://www.w3.org/Graphics/SVG/1.1/DTD/svg11.dtd">
<svg width="100%" height="100%" viewBox="0 0 114 50" version="1.1" xmlns="http://www.w3.org/2000/svg" xmlns:xlink="http://www.w3.org/1999/xlink" xml:space="preserve" xmlns:serif="http://www.serif.com/" style="fill-rule:evenodd;clip-rule:evenodd;stroke-linecap:round;stroke-linejoin:round;stroke-miterlimit:1.5;">
    <g transform="matrix(1,0,0,1,-587.949,-256.593)">
        <g id="bw_kbd" transform="matrix(1,0,0,1,141.49,14.7214)">
            <g transform="matrix(0.909922,0,0,1.03956,314.556,146.641)">
                <path d="M268.995,106.707C268.995,98.772 261.634,92.33 252.569,92.33L162.212,92.33C153.146,92.33 145.786,98.772 145.786,106.707L145.786,124.331C145.786,132.267 153.146,138.709 162.212,138.709L252.569,138.709C261.634,138.709 268.995,132.267 268.995,124.331L268.995,106.707Z" style="fill:white;stroke:black;stroke-width:1.54px;"/>
            </g>
            <g transform="matrix(1,0,0,1,316.094,169.916)">
                <g transform="matrix(16,0,0,16,197.921,101.941)">
                    <path d="M0.075,-0L0.075,-0.716L0.219,-0.716L0.219,-0.398L0.511,-0.716L0.706,-0.716L0.436,-0.437L0.72,-0L0.533,-0L0.336,-0.336L0.219,-0.216L0.219,-0L0.075,-0Z" style="fill-rule:nonzero;"/>
                </g>
                <g transform="matrix(16,0,0,16,209.476,101.941)">
                    <path d="M0.073,-0.716L0.359,-0.716C0.416,-0.716 0.458,-0.713 0.486,-0.709C0.514,-0.704 0.539,-0.694 0.561,-0.679C0.583,-0.664 0.601,-0.644 0.616,-0.619C0.63,-0.594 0.638,-0.567 0.638,-0.536C0.638,-0.502 0.629,-0.471 0.611,-0.443C0.593,-0.415 0.568,-0.394 0.537,-0.38C0.581,-0.368 0.614,-0.346 0.638,-0.315C0.661,-0.285 0.673,-0.249 0.673,-0.208C0.673,-0.175 0.665,-0.143 0.65,-0.113C0.635,-0.082 0.614,-0.057 0.588,-0.039C0.562,-0.02 0.53,-0.009 0.491,-0.005C0.467,-0.002 0.409,-0.001 0.317,-0L0.073,-0L0.073,-0.716ZM0.218,-0.597L0.218,-0.431L0.313,-0.431C0.369,-0.431 0.404,-0.432 0.417,-0.434C0.442,-0.437 0.462,-0.445 0.476,-0.459C0.49,-0.473 0.497,-0.492 0.497,-0.515C0.497,-0.537 0.491,-0.555 0.479,-0.569C0.467,-0.583 0.448,-0.591 0.424,-0.594C0.41,-0.596 0.369,-0.597 0.301,-0.597L0.218,-0.597ZM0.218,-0.312L0.218,-0.121L0.352,-0.121C0.404,-0.121 0.437,-0.122 0.451,-0.125C0.472,-0.129 0.49,-0.138 0.503,-0.154C0.517,-0.169 0.523,-0.189 0.523,-0.214C0.523,-0.236 0.518,-0.254 0.508,-0.269C0.497,-0.284 0.482,-0.295 0.463,-0.302C0.443,-0.309 0.4,-0.312 0.334,-0.312L0.218,-0.312Z" style="fill-rule:nonzero;"/>
                </g>
                <g transform="matrix(16,0,0,16,221.031,101.941)">
                    <path d="M0.072,-0.716L0.336,-0.716C0.396,-0.716 0.441,-0.711 0.473,-0.702C0.515,-0.69 0.551,-0.668 0.581,-0.636C0.611,-0.605 0.633,-0.566 0.649,-0.52C0.665,-0.475 0.672,-0.418 0.672,-0.351C0.672,-0.292 0.665,-0.241 0.65,-0.199C0.632,-0.147 0.607,-0.104 0.574,-0.072C0.549,-0.048 0.515,-0.029 0.472,-0.015C0.44,-0.005 0.398,-0 0.344,-0L0.072,-0L0.072,-0.716ZM0.217,-0.595L0.217,-0.121L0.325,-0.121C0.365,-0.121 0.394,-0.123 0.412,-0.127C0.436,-0.133 0.455,-0.143 0.47,-0.157C0.486,-0.171 0.499,-0.194 0.508,-0.226C0.518,-0.258 0.523,-0.302 0.523,-0.357C0.523,-0.413 0.518,-0.455 0.508,-0.485C0.499,-0.514 0.485,-0.538 0.467,-0.554C0.45,-0.571 0.427,-0.582 0.4,-0.588C0.38,-0.592 0.341,-0.595 0.282,-0.595L0.217,-0.595Z" style="fill-rule:nonzero;"/>
                </g>
            </g>
            <g transform="matrix(0.454961,0,0,1.01373,380.883,149.026)">
                <path d="M268.995,92.33L177.822,92.33C160.141,92.33 145.786,98.772 145.786,106.707L145.786,124.331C145.786,132.267 160.141,138.709 177.822,138.709L268.995,138.709L268.995,92.33Z" style="stroke:black;stroke-width:1.91px;"/>
            </g>
            <g id="path1334" transform="matrix(0.0947921,0,0,0.0947921,452.713,255.321)">
                <path d="M462.836,114.054L412.799,85.158L412.799,105.771L157.046,105.771L206.844,53.159C211.082,49.762 216.627,47.379 222.331,47.247C245.406,47.247 259.109,47.241 264.153,47.231C267.572,56.972 276.756,64.003 287.674,64.003C301.486,64.003 312.695,52.795 312.695,38.978C312.695,25.155 301.487,13.951 287.674,13.951C276.756,13.951 267.572,20.978 264.153,30.711L222.821,30.704C211.619,30.704 199.881,36.85 192.41,44.055C192.614,43.841 192.826,43.613 192.398,44.059C192.24,44.237 139.564,99.873 139.564,99.873C135.335,103.265 129.793,105.633 124.093,105.769L95.161,105.769C91.326,86.656 74.448,72.256 54.202,72.256C31.119,72.256 12.408,90.967 12.408,114.043C12.408,137.126 31.119,155.838 54.202,155.838C74.452,155.838 91.33,141.426 95.165,122.297L123.59,122.297C123.663,122.297 123.736,122.301 123.81,122.297L186.681,122.297C192.37,122.442 197.905,124.813 202.13,128.209C202.13,128.209 254.794,183.841 254.957,184.021C255.379,184.468 255.169,184.235 254.961,184.025C262.432,191.229 274.175,197.371 285.379,197.371L325.211,197.362L325.211,214.139L375.261,214.139L375.261,164.094L325.211,164.094L325.211,180.849C325.211,180.849 314.72,180.83 284.891,180.83C279.186,180.699 273.635,178.319 269.399,174.922L219.59,122.3L412.799,122.3L412.799,142.946L462.836,114.054Z" style="fill:white;fill-rule:nonzero;"/>
            </g>
        </g>
    </g>
</svg>
