<?xml version="1.0" encoding="UTF-8" standalone="no"?>
<!DOCTYPE svg PUBLIC "-//W3C//DTD SVG 1.1//EN" "http://www.w3.org/Graphics/SVG/1.1/DTD/svg11.dtd">
<svg width="100%" height="100%" viewBox="0 0 127 50" version="1.1" xmlns="http://www.w3.org/2000/svg" xmlns:xlink="http://www.w3.org/1999/xlink" xml:space="preserve" xmlns:serif="http://www.serif.com/" style="fill-rule:evenodd;clip-rule:evenodd;stroke-linecap:round;stroke-linejoin:round;stroke-miterlimit:1.5;">
    <g transform="matrix(1,0,0,1,-614.792,-205.477)">
        <g id="bw_mouse" transform="matrix(1,0,0,1,168.333,-36.3951)">
            <g transform="matrix(1.01615,0,0,1.03956,299.07,146.641)">
                <path d="M268.995,106.707C268.995,98.772 262.404,92.33 254.286,92.33L160.495,92.33C152.377,92.33 145.786,98.772 145.786,106.707L145.786,124.331C145.786,132.267 152.377,138.709 160.495,138.709L254.286,138.709C262.404,138.709 268.995,132.267 268.995,124.331L268.995,106.707Z" style="fill:white;stroke:black;stroke-width:1.46px;"/>
            </g>
            <g transform="matrix(1,0,0,1,322.759,170.512)">
                <g transform="matrix(16,0,0,16,185.917,101.941)">
                    <path d="M0.071,-0L0.071,-0.716L0.287,-0.716L0.417,-0.228L0.545,-0.716L0.762,-0.716L0.762,-0L0.628,-0L0.628,-0.563L0.486,-0L0.347,-0L0.205,-0.563L0.205,-0L0.071,-0Z" style="fill-rule:nonzero;"/>
                </g>
                <g transform="matrix(16,0,0,16,199.245,101.941)">
                    <path d="M0.043,-0.354C0.043,-0.426 0.054,-0.488 0.076,-0.537C0.092,-0.574 0.115,-0.606 0.143,-0.635C0.171,-0.664 0.202,-0.686 0.235,-0.7C0.28,-0.719 0.331,-0.728 0.39,-0.728C0.495,-0.728 0.58,-0.695 0.643,-0.63C0.706,-0.564 0.738,-0.473 0.738,-0.357C0.738,-0.241 0.706,-0.151 0.644,-0.086C0.581,-0.02 0.497,0.012 0.392,0.012C0.285,0.012 0.201,-0.02 0.138,-0.085C0.075,-0.15 0.043,-0.24 0.043,-0.354ZM0.192,-0.358C0.192,-0.277 0.211,-0.216 0.249,-0.174C0.286,-0.132 0.333,-0.111 0.391,-0.111C0.449,-0.111 0.496,-0.132 0.533,-0.174C0.57,-0.215 0.588,-0.277 0.588,-0.36C0.588,-0.442 0.57,-0.504 0.534,-0.544C0.498,-0.584 0.451,-0.604 0.391,-0.604C0.332,-0.604 0.284,-0.584 0.247,-0.543C0.211,-0.502 0.192,-0.441 0.192,-0.358Z" style="fill-rule:nonzero;"/>
                </g>
                <g transform="matrix(16,0,0,16,211.691,101.941)">
                    <path d="M0.072,-0.716L0.216,-0.716L0.216,-0.328C0.216,-0.267 0.218,-0.227 0.222,-0.208C0.228,-0.179 0.243,-0.156 0.266,-0.138C0.289,-0.12 0.321,-0.111 0.361,-0.111C0.402,-0.111 0.433,-0.12 0.454,-0.136C0.475,-0.153 0.487,-0.174 0.492,-0.198C0.496,-0.223 0.498,-0.263 0.498,-0.32L0.498,-0.716L0.643,-0.716L0.643,-0.34C0.643,-0.254 0.639,-0.193 0.631,-0.158C0.623,-0.122 0.609,-0.092 0.588,-0.068C0.567,-0.043 0.539,-0.024 0.503,-0.01C0.468,0.005 0.422,0.012 0.366,0.012C0.297,0.012 0.246,0.004 0.21,-0.011C0.175,-0.027 0.147,-0.048 0.126,-0.073C0.106,-0.098 0.092,-0.125 0.086,-0.152C0.076,-0.193 0.072,-0.254 0.072,-0.334L0.072,-0.716Z" style="fill-rule:nonzero;"/>
                </g>
                <g transform="matrix(16,0,0,16,223.245,101.941)">
                    <path d="M0.036,-0.233L0.177,-0.247C0.185,-0.199 0.202,-0.165 0.228,-0.143C0.254,-0.12 0.289,-0.109 0.333,-0.109C0.38,-0.109 0.415,-0.119 0.438,-0.139C0.462,-0.159 0.474,-0.182 0.474,-0.208C0.474,-0.225 0.469,-0.239 0.459,-0.251C0.449,-0.263 0.431,-0.273 0.407,-0.282C0.39,-0.288 0.351,-0.299 0.291,-0.313C0.214,-0.333 0.159,-0.356 0.128,-0.384C0.084,-0.424 0.062,-0.472 0.062,-0.528C0.062,-0.565 0.072,-0.599 0.093,-0.631C0.114,-0.662 0.143,-0.687 0.182,-0.703C0.221,-0.72 0.268,-0.728 0.323,-0.728C0.413,-0.728 0.481,-0.708 0.526,-0.669C0.572,-0.63 0.595,-0.577 0.598,-0.511L0.453,-0.505C0.447,-0.542 0.434,-0.568 0.413,-0.584C0.393,-0.6 0.362,-0.608 0.322,-0.608C0.28,-0.608 0.247,-0.6 0.223,-0.583C0.208,-0.571 0.2,-0.557 0.2,-0.538C0.2,-0.521 0.207,-0.507 0.222,-0.495C0.24,-0.479 0.284,-0.463 0.354,-0.447C0.425,-0.43 0.477,-0.413 0.51,-0.395C0.544,-0.378 0.571,-0.353 0.59,-0.323C0.609,-0.292 0.618,-0.254 0.618,-0.208C0.618,-0.167 0.607,-0.129 0.584,-0.093C0.561,-0.057 0.529,-0.031 0.487,-0.013C0.446,0.004 0.394,0.013 0.332,0.013C0.241,0.013 0.172,-0.008 0.123,-0.05C0.075,-0.092 0.046,-0.153 0.036,-0.233Z" style="fill-rule:nonzero;"/>
                </g>
                <g transform="matrix(16,0,0,16,233.917,101.941)">
                    <path d="M0.073,-0L0.073,-0.716L0.604,-0.716L0.604,-0.595L0.217,-0.595L0.217,-0.436L0.577,-0.436L0.577,-0.315L0.217,-0.315L0.217,-0.121L0.617,-0.121L0.617,-0L0.073,-0Z" style="fill-rule:nonzero;"/>
                </g>
            </g>
            <g transform="matrix(0.454961,0,0,1.01373,380.883,149.026)">
                <path d="M268.995,92.33L177.822,92.33C160.141,92.33 145.786,98.772 145.786,106.707L145.786,124.331C145.786,132.267 160.141,138.709 177.822,138.709L268.995,138.709L268.995,92.33Z" style="stroke:black;stroke-width:1.91px;"/>
            </g>
            <g id="path1334" transform="matrix(0.0947921,0,0,0.0947921,452.713,255.321)">
                <path d="M462.836,114.054L412.799,85.158L412.799,105.771L157.046,105.771L206.844,53.159C211.082,49.762 216.627,47.379 222.331,47.247C245.406,47.247 259.109,47.241 264.153,47.231C267.572,56.972 276.756,64.003 287.674,64.003C301.486,64.003 312.695,52.795 312.695,38.978C312.695,25.155 301.487,13.951 287.674,13.951C276.756,13.951 267.572,20.978 264.153,30.711L222.821,30.704C211.619,30.704 199.881,36.85 192.41,44.055C192.614,43.841 192.826,43.613 192.398,44.059C192.24,44.237 139.564,99.873 139.564,99.873C135.335,103.265 129.793,105.633 124.093,105.769L95.161,105.769C91.326,86.656 74.448,72.256 54.202,72.256C31.119,72.256 12.408,90.967 12.408,114.043C12.408,137.126 31.119,155.838 54.202,155.838C74.452,155.838 91.33,141.426 95.165,122.297L123.59,122.297C123.663,122.297 123.736,122.301 123.81,122.297L186.681,122.297C192.37,122.442 197.905,124.813 202.13,128.209C202.13,128.209 254.794,183.841 254.957,184.021C255.379,184.468 255.169,184.235 254.961,184.025C262.432,191.229 274.175,197.371 285.379,197.371L325.211,197.362L325.211,214.139L375.261,214.139L375.261,164.094L325.211,164.094L325.211,180.849C325.211,180.849 314.72,180.83 284.891,180.83C279.186,180.699 273.635,178.319 269.399,174.922L219.59,122.3L412.799,122.3L412.799,142.946L462.836,114.054Z" style="fill:white;fill-rule:nonzero;"/>
            </g>
        </g>
    </g>
</svg>
